SplineFontDB: 3.2
FontName: UFLumo
FullName: UF Lumo
FamilyName: UF Lumo
Weight: Regular
Copyright: Copyright (c) 2021 ura
UComments: "Created with FontForge (http://fontforge.org)"
Version: 1.000
ItalicAngle: 0
UnderlinePosition: -102
UnderlineWidth: 51
Ascent: 819
Descent: 205
InvalidEm: 0
LayerCount: 2
Layer: 0 0 "+gMyXYgAA" 1
Layer: 1 0 "+Uk2XYgAA" 0
XUID: [1021 441 -436763822 5018]
StyleMap: 0x0000
FSType: 0
OS2Version: 0
OS2_WeightWidthSlopeOnly: 0
OS2_UseTypoMetrics: 1
CreationTime: 1638943778
ModificationTime: 1639832975
OS2TypoAscent: 0
OS2TypoAOffset: 1
OS2TypoDescent: 0
OS2TypoDOffset: 1
OS2TypoLinegap: 92
OS2WinAscent: 0
OS2WinAOffset: 1
OS2WinDescent: 0
OS2WinDOffset: 1
HheadAscent: 0
HheadAOffset: 1
HheadDescent: 0
HheadDOffset: 1
OS2Vendor: 'PfEd'
Lookup: 4 0 1 "'liga' +ahluljBuVAhbVwAA in +MOkwxjDzZYdbVwAA lookup 0" { "'liga' +ahluljBuVAhbVwAA in +MOkwxjDzZYdbVwAA lookup 0-1"  } ['liga' ('DFLT' <'dflt' > 'latn' <'dflt' > ) ]
MarkAttachClasses: 1
DEI: 91125

StartChar: A
Encoding: 65 65 0
Width: 768
Flags: HW
LayerCount: 2
Fore
SplineSet
209 416 m 1
 247 446 299 461 357 461 c 0
 431 461 495 438 533 393 c 1
 537 431 541 470 544 508 c 1
 487 510 410 512 338 512 c 0
 293 512 262 498 240 474 c 0
 225 458 215 440 209 416 c 1
520 165 m 1
 481 128 423 109 359 109 c 0
 291 109 227 130 188 172 c 1
 187 118 188 63 194 6 c 1
 43 0 l 1
 35 210 36 369 84 485 c 0
 112 552 188 620 252 643 c 0
 344 675 517 667 610 654 c 0
 647 649 702 582 698 541 c 0
 687 416 661 360 661 273 c 0
 661 186 673 145 752 149 c 1
 760 5 l 1
 650 -1 577 -1 541 59 c 0
 525 86 521 122 520 165 c 1
359 239 m 0
 390 239 425 263 425 286 c 0
 425 309 388 330 357 330 c 0
 325 330 290 308 290 283 c 0
 290 261 324 239 359 239 c 0
EndSplineSet
EndChar

StartChar: B
Encoding: 66 66 1
Width: 672
Flags: HW
HStem: 45 386<224.703 439.649>
VStem: 79 547<181.444 327.034>
LayerCount: 2
Fore
SplineSet
248 205 m 0
 248 265 278 295 338 295 c 0
 398 295 428 265 428 205 c 0
 428 145 398 115 338 115 c 0
 278 115 248 145 248 205 c 0
338 102 m 0
 447 102 516 135 516 213 c 0
 516 282 425 314 337 314 c 0
 244 314 165 271 165 213 c 0
 165 135 228 102 338 102 c 0
203 541 m 0
 203 571 204 606 208 633 c 0
 212 662 241 684 275 678 c 0
 334 667 414 647 448 624 c 0
 474 607 503 576 503 534 c 0
 503 490 473 457 447 440 c 0
 439 435 429 430 418 425 c 1
 557 414 668 367 668 220 c 0
 668 31 539 0 338 0 c 0
 138 0 21 45 21 229 c 0
 21 343 104 396 212 417 c 1
 210 421 210 426 209 430 c 0
 205 465 203 506 203 541 c 0
322 509 m 1
 337 515 362 525 373 532 c 1
 362 539 336 549 321 555 c 1
 321 543 322 521 322 509 c 1
EndSplineSet
EndChar

StartChar: O
Encoding: 79 79 2
Width: 678
Flags: HW
LayerCount: 2
Fore
SplineSet
261 327 m 4
 261 387 291 417 351 417 c 4
 411 417 441 387 441 327 c 4
 441 267 411 237 351 237 c 4
 291 237 261 267 261 327 c 4
341 486 m 0
 263 486 219 394 219 314 c 0
 219 258 282 174 338 174 c 0
 392 174 416 203 420 211 c 1
 579 125 l 1
 545 63 462 0 338 0 c 0
 175 0 39 152 39 314 c 0
 39 498 156 656 341 656 c 0
 448 656 571 600 639 459 c 1
 476 381 l 1
 436 464 374 486 341 486 c 0
EndSplineSet
EndChar

StartChar: N
Encoding: 78 78 3
Width: 784
Flags: HW
LayerCount: 2
Fore
SplineSet
218 144 m 1
 369 144 l 1
 369 210 341 340 294 340 c 0
 241 340 218 209 218 144 c 1
296 655 m 0
 470 655 553 417 547 144 c 1
 741 152 l 1
 741 0 l 1
 45 0 l 1
 29 419 75 655 296 655 c 0
EndSplineSet
EndChar

StartChar: M
Encoding: 77 77 4
Width: 976
Flags: HW
LayerCount: 2
Fore
SplineSet
320 144 m 1
 317 199 302 341 261 341 c 0
 230 341 218 197 218 144 c 1
 320 144 l 1
609 145 m 1
 606 231 576 352 546 352 c 0
 508 352 486 230 489 145 c 1
 609 145 l 1
243 655 m 0
 331 655 375 577 401 515 c 1
 433 581 489 655 587 655 c 0
 764 655 783 296 782 145 c 1
 936 154 l 1
 936 1 l 1
 44 0 l 1
 38 215 8 655 243 655 c 0
EndSplineSet
EndChar

StartChar: T
Encoding: 84 84 5
Width: 742
Flags: HW
HStem: 0 655<301.959 437.84>
VStem: 36 180<287.37 420.437> 299 144<262 463> 526 180<289.747 412.935>
CounterMasks: 1 70
LayerCount: 2
Fore
SplineSet
442 473 m 1
 443 252 l 1
 489 261 536 293 536 340 c 0
 536 403 492 454 442 473 c 1
299 250 m 1
 298 475 l 1
 247 458 206 408 206 340 c 0
 206 288 252 258 299 250 c 1
36 340 m 0
 36 540 183 655 370 655 c 0
 556 655 706 536 706 340 c 0
 706 180 589 103 443 84 c 1
 448 0 l 1
 294 0 l 1
 299 83 l 1
 152 102 36 179 36 340 c 0
EndSplineSet
EndChar

StartChar: E
Encoding: 69 69 6
Width: 580
Flags: HW
HStem: 271 380<301.452 479.181>
VStem: 193 405<362.188 528.121>
LayerCount: 2
Fore
SplineSet
298 294 m 0
 265 294 237 298 208 310 c 1
 210 299 213 272 217 246 c 1
 408 280 l 1
 418 169 l 1
 240 149 l 1
 243 142 247 136 252 129 c 0
 257 122 282 108 294 106 c 0
 324 101 398 103 425 105 c 0
 448 107 482 112 507 120 c 1
 501 6 l 1
 474 3 443 0 411 0 c 0
 373 0 279 0 235 5 c 0
 211 7 173 21 144 43 c 0
 124 58 104 98 92 132 c 1
 44 126 l 1
 33 214 l 1
 72 221 l 1
 60 291 51 370 51 438 c 0
 51 559 156 655 301 655 c 0
 451 655 547 590 547 462 c 0
 547 343 436 294 298 294 c 0
298 411 m 0
 351 411 407 426 407 463 c 0
 407 496 366 511 301 511 c 0
 244 511 195 492 195 455 c 0
 195 422 250 411 298 411 c 0
EndSplineSet
EndChar

StartChar: C
Encoding: 67 67 7
Width: 578
Flags: HW
HStem: -0 108<167.655 306.895> 178 108<191.193 356.344> 547 108<221.683 334.663>
VStem: 26 108<140.563 188.583 337.49 461.836> 415 108<342.141 464.553>
LayerCount: 2
Fore
SplineSet
175 406 m 0
 175 456 211 513 296 513 c 0
 369 513 405 456 405 414 c 0
 405 350 368 314 296 314 c 0
 222 314 175 346 175 406 c 0
179 214 m 1
 223 185 242 178 296 178 c 0
 433 178 546 279 546 414 c 0
 546 545 435 655 296 655 c 0
 145 655 38 547 34 405 c 0
 32 341 35 257 46 189 c 0
 53 144 70 108 92 83 c 0
 140 28 193 0 265 0 c 0
 305 0 347 12 386 37 c 1
 328 125 l 1
 305 118 294 116 274 116 c 0
 238 116 220 131 204 147 c 0
 186 165 179 181 179 214 c 1
EndSplineSet
EndChar

StartChar: L
Encoding: 76 76 8
Width: 744
Flags: HW
HStem: 46 534<280.675 443.127>
VStem: 122 518<183.207 378.015>
LayerCount: 2
Fore
SplineSet
61 0 m 1
 46 135 l 1
 73 142 134 147 160 152 c 1
 82 181 36 262 36 329 c 0
 36 514 178 655 365 655 c 0
 566 655 708 526 708 329 c 0
 708 260 661 182 578 149 c 1
 602 145 669 140 694 134 c 1
 678 0 l 1
 548 7 525 44 371 44 c 0
 229 44 180 9 61 0 c 1
372 178 m 0
 455 178 528 234 528 319 c 0
 528 413 460 477 367 477 c 0
 289 477 216 404 216 321 c 0
 216 235 288 178 372 178 c 0
283 306 m 0
 283 366 313 396 373 396 c 0
 433 396 463 366 463 306 c 0
 463 246 433 216 373 216 c 0
 313 216 283 246 283 306 c 0
EndSplineSet
EndChar

StartChar: U
Encoding: 85 85 9
Width: 768
Flags: HW
LayerCount: 2
Fore
SplineSet
401 180 m 0
 473 180 464 309 455 402 c 1
 309 402 l 1
 301 293 296 180 401 180 c 0
46 398 m 1
 48 546 l 1
 720 546 l 1
 722 398 l 1
 636 402 l 1
 650 186 624 0 401 -0 c 0
 159 0 122 171 130 402 c 1
 46 398 l 1
EndSplineSet
EndChar

StartChar: P
Encoding: 80 80 10
Width: 644
Flags: HW
LayerCount: 2
Fore
SplineSet
182 86 m 1
 182 1 l 1
 38 1 l 1
 38 640 l 1
 126 650 214 655 302 655 c 0
 472 653 606 533 606 357 c 0
 606 212 467 80 323 78 c 0
 276 78 229 80 182 86 c 1
182 261 m 1
 210 253 254 242 320 242 c 0
 377 242 426 301 426 364 c 0
 426 435 380 492 300 492 c 0
 242 492 204 479 182 471 c 1
 182 261 l 1
203 367 m 0
 203 427 233 457 293 457 c 0
 353 457 383 427 383 367 c 0
 383 307 353 277 293 277 c 0
 233 277 203 307 203 367 c 0
EndSplineSet
EndChar

StartChar: S
Encoding: 83 83 11
Width: 662
Flags: HW
LayerCount: 2
Fore
SplineSet
274 405 m 0
 274 579 428 632 582 655 c 1
 610 477 l 1
 467 452 464 440 464 240 c 0
 464 64 255 26 79 0 c 1
 52 178 l 1
 272 211 274 196 274 405 c 0
EndSplineSet
EndChar

StartChar: J
Encoding: 74 74 12
Width: 624
Flags: HW
LayerCount: 2
Fore
SplineSet
293 652 m 0
 383 652 474 648 535 640 c 0
 576 635 609 598 609 554 c 0
 609 546 608 538 606 531 c 0
 589 467 555 407 516 350 c 0
 472 286 420 225 371 179 c 1
 372 170 374 156 379 125 c 0
 381 114 383 101 385 86 c 0
 386 83 386 79 386 75 c 0
 386 37 356 5 318 3 c 0
 281 1 244 0 208 0 c 0
 167 0 128 1 95 3 c 1
 103 147 l 1
 133 145 170 144 208 144 c 0
 216 144 223 144 231 144 c 1
 229 158 228 170 227 182 c 1
 189 220 156 263 127 309 c 0
 84 376 47 449 16 517 c 0
 11 528 8 542 8 555 c 0
 8 599 38 635 79 641 c 0
 133 649 212 652 293 652 c 0
396 475 m 1
 363 476 328 477 293 477 c 0
 270 477 247 477 225 476 c 1
 249 432 274 391 303 354 c 1
 336 391 369 432 396 475 c 1
EndSplineSet
EndChar

StartChar: G
Encoding: 71 71 13
Width: 792
Flags: HW
LayerCount: 2
Fore
SplineSet
250 329 m 0
 250 389 280 419 340 419 c 0
 400 419 430 389 430 329 c 0
 430 269 400 239 340 239 c 0
 280 239 250 269 250 329 c 0
336 144 m 0
 353 144 369 146 380 153 c 1
 456 31 l 1
 430 15 379 0 336 0 c 0
 131 0 43 124 43 319 c 0
 43 482 142 655 333 655 c 0
 512 655 616 556 629 396 c 1
 656 394 681 391 702 385 c 0
 753 372 763 321 749 268 c 0
 725 180 687 108 630 29 c 0
 604 -7 548 -11 518 23 c 0
 474 73 447 105 419 157 c 1
 545 225 l 1
 551 213 557 204 563 195 c 1
 573 215 582 233 590 252 c 1
 545 253 501 253 458 247 c 1
 444 391 l 1
 456 392 470 393 484 394 c 1
 474 469 428 511 333 511 c 0
 226 511 187 405 187 319 c 0
 187 215 228 144 336 144 c 0
EndSplineSet
EndChar

StartChar: V
Encoding: 86 86 14
Width: 626
Flags: HW
LayerCount: 2
Fore
SplineSet
95 457 m 1
 95 601 l 1
 230 601 405 590 506 582 c 0
 543 579 572 548 572 510 c 0
 572 471 559 442 547 410 c 0
 510 314 440 181 393 100 c 0
 373 65 363 40 335 17 c 0
 309 -5 268 -4 242 18 c 0
 224 33 218 48 206 69 c 0
 159 152 86 306 54 371 c 1
 184 434 l 1
 209 383 250 298 292 215 c 1
 329 282 376 374 405 445 c 1
 309 451 189 457 95 457 c 1
EndSplineSet
EndChar

StartChar: R
Encoding: 82 82 15
Width: 828
Flags: HW
HStem: 16 614<326.572 499.461>
VStem: 121 595<239.99 427.783>
LayerCount: 2
Fore
SplineSet
405 655 m 0
 621 655 758 526 758 319 c 0
 758 130 606 0 407 0 c 0
 211 0 62 126 62 319 c 0
 62 525 218 655 405 655 c 0
479 476 m 1
 479 391 l 1
 579 391 l 1
 561 435 527 463 479 476 c 1
571 247 m 1
 479 247 l 1
 479 176 l 1
 518 190 551 215 571 247 c 1
335 177 m 1
 335 247 l 1
 255 247 l 1
 271 215 300 191 335 177 c 1
256 391 m 1
 335 391 l 1
 335 470 l 1
 301 454 272 427 256 391 c 1
EndSplineSet
EndChar

StartChar: K
Encoding: 75 75 16
Width: 786
Flags: HW
LayerCount: 2
Fore
SplineSet
754 122 m 0
 745 74 723 37 670 37 c 0
 613 37 555 70 511 105 c 1
 467 38 394 0 285 0 c 0
 89 0 21 136 21 326 c 0
 21 506 106 655 291 655 c 0
 434 655 514 584 547 471 c 1
 595 496 647 511 687 511 c 0
 723 511 741 470 750 431 c 0
 768 354 771 213 754 122 c 0
291 485 m 0
 230 485 191 398 191 326 c 0
 191 231 231 170 294 170 c 0
 367 170 395 239 395 332 c 0
 395 422 365 485 291 485 c 0
557 229 m 1
 574 216 605 215 611 218 c 0
 618 221 622 326 615 331 c 0
 610 334 580 331 565 323 c 1
 565 289 562 258 557 229 c 1
EndSplineSet
EndChar

StartChar: D
Encoding: 68 68 17
Width: 640
Flags: HW
LayerCount: 2
Fore
SplineSet
217 325 m 0
 217 385 247 415 307 415 c 0
 367 415 397 385 397 325 c 0
 397 265 367 235 307 235 c 0
 247 235 217 265 217 325 c 0
60 324 m 0
 60 404 67 491 81 581 c 0
 87 615 116 641 152 641 c 0
 156 641 161 641 165 640 c 0
 217 631 281 623 345 597 c 0
 396 576 447 549 490 513 c 0
 537 473 580 399 580 325 c 0
 580 254 540 183 495 141 c 0
 454 103 404 74 353 50 c 0
 289 21 228 11 168 2 c 0
 165 2 156 1 152 1 c 0
 116 1 86 27 81 62 c 0
 68 150 60 238 60 324 c 0
435 325 m 0
 435 336 433 354 427 365 c 0
 417 383 397 405 363 427 c 0
 321 453 267 468 213 481 c 1
 207 428 204 327 204 324 c 0
 204 271 207 214 213 160 c 1
 268 174 322 191 364 220 c 0
 392 239 412 260 423 277 c 0
 432 291 435 313 435 325 c 0
EndSplineSet
EndChar

StartChar: I
Encoding: 73 73 18
Width: 802
Flags: HW
HStem: 187 415<325.233 542.01>
VStem: 159 550<290.359 458.091>
LayerCount: 2
Fore
SplineSet
328 104 m 1
 165 122 36 194 36 371 c 0
 36 557 217 655 400 655 c 0
 581 655 766 554 766 371 c 0
 766 193 636 122 472 104 c 1
 477 0 l 1
 323 0 l 1
 328 104 l 1
400 247 m 0
 500 247 596 272 596 361 c 0
 596 435 475 497 400 497 c 0
 323 497 206 438 206 361 c 0
 206 273 301 247 400 247 c 0
310 372 m 0
 310 432 340 462 400 462 c 0
 460 462 490 432 490 372 c 0
 490 312 460 282 400 282 c 0
 340 282 310 312 310 372 c 0
EndSplineSet
EndChar

StartChar: Z
Encoding: 90 90 19
Width: 720
Flags: HW
LayerCount: 2
Fore
SplineSet
268 378 m 0
 268 438 298 468 358 468 c 0
 418 468 448 438 448 378 c 0
 448 318 418 288 358 288 c 0
 298 288 268 318 268 378 c 0
505 377 m 0
 505 445 431 496 354 496 c 0
 277 496 215 425 215 375 c 0
 215 291 257 265 361 265 c 0
 448 265 505 290 505 377 c 0
323 131 m 1
 170 140 71 208 71 375 c 0
 71 519 196 640 354 640 c 0
 514 640 649 530 649 377 c 0
 649 235 560 157 437 136 c 1
 451 113 478 106 515 106 c 0
 532 106 551 111 564 119 c 1
 622 20 l 1
 591 4 550 1 520 1 c 0
 462 1 409 13 374 38 c 0
 348 56 330 90 323 131 c 1
EndSplineSet
EndChar

StartChar: F
Encoding: 70 70 20
Width: 566
Flags: HW
LayerCount: 2
Fore
SplineSet
308 511 m 0
 251 511 224 490 224 452 c 0
 224 424 265 402 308 402 c 0
 363 402 388 421 388 461 c 0
 388 493 357 511 308 511 c 0
46 97 m 1
 34 191 l 1
 80 198 l 1
 79 245 78 291 78 336 c 0
 78 367 78 407 80 444 c 0
 87 596 148 655 308 655 c 0
 436 655 532 585 532 461 c 0
 532 327 436 278 308 278 c 0
 282 278 253 280 223 288 c 1
 224 268 224 244 225 219 c 1
 410 247 l 1
 419 128 l 1
 227 112 l 1
 228 73 229 35 230 3 c 1
 86 4 l 1
 85 35 84 68 83 100 c 1
 46 97 l 1
EndSplineSet
EndChar

StartChar: H
Encoding: 72 72 21
Width: 724
Flags: HW
HStem: 101 144<261.465 471.523> 261 180<299.115 416.885> 478 144<282.682 468.839>
VStem: 10 212<230.053 476.489> 44 137<534.586 609.633> 54 140<43.2875 119.09> 105 49<245.917 453.832> 268 180<292.115 409.885> 510 185<248.423 438.577> 525 143<25.8639 142.622 580.913 622.897> 551 103<214.287 479.554>
LayerCount: 2
Fore
SplineSet
268 351 m 0
 268 411 298 441 358 441 c 0
 418 441 448 411 448 351 c 0
 448 291 418 261 358 261 c 0
 298 261 268 291 268 351 c 0
695 326 m 0
 695 237 678 91 668 9 c 1
 525 27 l 1
 529 55 533 92 537 131 c 1
 489 104 429 90 362 90 c 0
 272 90 210 123 169 170 c 1
 180 94 194 45 194 45 c 1
 54 11 l 1
 54 11 10 186 10 371 c 0
 10 519 42 648 44 653 c 1
 181 607 l 1
 177 589 172 561 167 528 c 1
 212 583 280 622 362 622 c 0
 428 622 490 605 539 572 c 1
 537 589 534 606 531 621 c 1
 673 651 l 1
 694 549 695 425 695 326 c 0
361 234 m 0
 438 234 500 273 500 355 c 0
 500 424 450 481 360 480 c 0
 284 479 220 425 222 359 c 0
 224 274 262 234 361 234 c 0
EndSplineSet
EndChar

StartChar: Y
Encoding: 89 89 22
Width: 678
Flags: HW
LayerCount: 2
Fore
SplineSet
275 26 m 0
 275 101 272 115 272 187 c 0
 272 198 272 210 272 222 c 1
 186 225 110 230 72 236 c 0
 37 241 11 271 11 307 c 0
 11 318 13 329 18 338 c 0
 27 356 39 377 57 404 c 0
 79 437 107 477 139 518 c 0
 185 576 238 636 294 678 c 0
 306 687 321 692 337 692 c 0
 352 692 366 687 378 679 c 0
 445 633 504 570 554 510 c 0
 616 435 663 364 683 331 c 0
 690 320 693 308 693 294 c 0
 693 256 664 225 627 222 c 0
 591 219 543 218 486 218 c 0
 463 218 440 219 416 219 c 1
 416 208 416 197 416 187 c 0
 416 116 419 102 419 26 c 0
 419 18 419 10 419 2 c 1
 275 4 l 1
 275 12 275 19 275 26 c 0
486 362 m 2
 487 362 l 1
 444 420 392 480 339 527 c 1
 294 483 246 423 208 370 c 1
 290 366 399 362 486 362 c 2
EndSplineSet
EndChar

StartChar: Ccircumflex
Encoding: 264 264 23
Width: 578
Flags: HW
LayerCount: 2
Fore
SplineSet
294 788 m 5
 247 746 196 697 148 657 c 5
 56 767 l 4
 85 791 121 824 154 855 c 4
 192 890 224 920 251 940 c 4
 263 949 278 954 294 954 c 4
 310 954 324 949 336 940 c 4
 360 922 389 897 420 867 c 4
 459 830 500 789 531 757 c 5
 427 657 l 5
 390 695 338 748 294 788 c 5
175 406 m 0
 175 456 211 513 296 513 c 0
 369 513 405 456 405 414 c 0
 405 350 368 314 296 314 c 0
 222 314 175 346 175 406 c 0
179 214 m 1
 223 185 242 178 296 178 c 0
 433 178 546 279 546 414 c 0
 546 545 435 655 296 655 c 0
 145 655 38 547 34 405 c 0
 32 341 35 257 46 189 c 0
 53 144 70 108 92 83 c 0
 140 28 193 0 265 0 c 0
 305 0 347 12 386 37 c 1
 328 125 l 1
 305 118 294 116 274 116 c 0
 238 116 220 131 204 147 c 0
 186 165 179 181 179 214 c 1
EndSplineSet
LCarets2: 1 0
Ligature2: "'liga' +ahluljBuVAhbVwAA in +MOkwxjDzZYdbVwAA lookup 0-1" C asciicircum
EndChar

StartChar: Gcircumflex
Encoding: 284 284 24
Width: 792
Flags: HW
LayerCount: 2
Fore
SplineSet
337 788 m 1
 290 746 239 697 191 657 c 1
 99 767 l 0
 128 791 164 824 197 855 c 0
 235 890 267 920 294 940 c 0
 306 949 321 954 337 954 c 0
 353 954 367 949 379 940 c 0
 403 922 432 897 463 867 c 0
 502 830 543 789 574 757 c 1
 470 657 l 1
 433 695 381 748 337 788 c 1
250 329 m 0
 250 389 280 419 340 419 c 0
 400 419 430 389 430 329 c 0
 430 269 400 239 340 239 c 0
 280 239 250 269 250 329 c 0
336 144 m 0
 353 144 369 146 380 153 c 1
 456 31 l 1
 430 15 379 0 336 0 c 0
 131 0 43 124 43 319 c 0
 43 482 142 655 333 655 c 0
 512 655 616 556 629 396 c 1
 656 394 681 391 702 385 c 0
 753 372 763 321 749 268 c 0
 725 180 687 108 630 29 c 0
 604 -7 548 -11 518 23 c 0
 474 73 447 105 419 157 c 1
 545 225 l 1
 551 213 557 204 563 195 c 1
 573 215 582 233 590 252 c 1
 545 253 501 253 458 247 c 1
 444 391 l 1
 456 392 470 393 484 394 c 1
 474 469 428 511 333 511 c 0
 226 511 187 405 187 319 c 0
 187 215 228 144 336 144 c 0
EndSplineSet
LCarets2: 1 0
Ligature2: "'liga' +ahluljBuVAhbVwAA in +MOkwxjDzZYdbVwAA lookup 0-1" G asciicircum
EndChar

StartChar: Hcircumflex
Encoding: 292 292 25
Width: 724
Flags: HW
LayerCount: 2
Fore
SplineSet
354 788 m 1
 307 746 256 697 208 657 c 1
 116 767 l 0
 145 791 181 824 214 855 c 0
 252 890 284 920 311 940 c 0
 323 949 338 954 354 954 c 0
 370 954 384 949 396 940 c 0
 420 922 449 897 480 867 c 0
 519 830 560 789 591 757 c 1
 487 657 l 1
 450 695 398 748 354 788 c 1
268 351 m 0
 268 411 298 441 358 441 c 0
 418 441 448 411 448 351 c 0
 448 291 418 261 358 261 c 0
 298 261 268 291 268 351 c 0
695 326 m 0
 695 237 678 91 668 9 c 1
 525 27 l 1
 529 55 533 92 537 131 c 1
 489 104 429 90 362 90 c 0
 272 90 210 123 169 170 c 1
 180 94 194 45 194 45 c 1
 54 11 l 1
 54 11 10 186 10 371 c 0
 10 519 42 648 44 653 c 1
 181 607 l 1
 177 589 172 561 167 528 c 1
 212 583 280 622 362 622 c 0
 428 622 490 605 539 572 c 1
 537 589 534 606 531 621 c 1
 673 651 l 1
 694 549 695 425 695 326 c 0
361 234 m 0
 438 234 500 273 500 355 c 0
 500 424 450 481 360 480 c 0
 284 479 220 425 222 359 c 0
 224 274 262 234 361 234 c 0
EndSplineSet
LCarets2: 1 0
Ligature2: "'liga' +ahluljBuVAhbVwAA in +MOkwxjDzZYdbVwAA lookup 0-1" H asciicircum
EndChar

StartChar: Jcircumflex
Encoding: 308 308 26
Width: 624
Flags: HW
LayerCount: 2
Fore
SplineSet
307 788 m 1
 260 746 209 697 161 657 c 1
 69 767 l 0
 98 791 134 824 167 855 c 0
 205 890 237 920 264 940 c 0
 276 949 291 954 307 954 c 0
 323 954 337 949 349 940 c 0
 373 922 402 897 433 867 c 0
 472 830 513 789 544 757 c 1
 440 657 l 1
 403 695 351 748 307 788 c 1
293 652 m 0
 383 652 474 648 535 640 c 0
 576 635 609 598 609 554 c 0
 609 546 608 538 606 531 c 0
 589 467 555 407 516 350 c 0
 472 286 420 225 371 179 c 1
 372 170 374 156 379 125 c 0
 381 114 383 101 385 86 c 0
 386 83 386 79 386 75 c 0
 386 37 356 5 318 3 c 0
 281 1 244 0 208 0 c 0
 167 0 128 1 95 3 c 1
 103 147 l 1
 133 145 170 144 208 144 c 0
 216 144 223 144 231 144 c 1
 229 158 228 170 227 182 c 1
 189 220 156 263 127 309 c 0
 84 376 47 449 16 517 c 0
 11 528 8 542 8 555 c 0
 8 599 38 635 79 641 c 0
 133 649 212 652 293 652 c 0
396 475 m 1
 363 476 328 477 293 477 c 0
 270 477 247 477 225 476 c 1
 249 432 274 391 303 354 c 1
 336 391 369 432 396 475 c 1
EndSplineSet
LCarets2: 1 0
Ligature2: "'liga' +ahluljBuVAhbVwAA in +MOkwxjDzZYdbVwAA lookup 0-1" J asciicircum
EndChar

StartChar: Scircumflex
Encoding: 348 348 27
Width: 662
Flags: HW
LayerCount: 2
Fore
SplineSet
339 788 m 1
 292 746 241 697 193 657 c 1
 101 767 l 0
 130 791 166 824 199 855 c 0
 237 890 269 920 296 940 c 0
 308 949 323 954 339 954 c 0
 355 954 369 949 381 940 c 0
 405 922 434 897 465 867 c 0
 504 830 545 789 576 757 c 1
 472 657 l 1
 435 695 383 748 339 788 c 1
274 405 m 0
 274 579 428 632 582 655 c 1
 610 477 l 1
 467 452 464 440 464 240 c 0
 464 64 255 26 79 0 c 1
 52 178 l 1
 272 211 274 196 274 405 c 0
EndSplineSet
LCarets2: 1 0
Ligature2: "'liga' +ahluljBuVAhbVwAA in +MOkwxjDzZYdbVwAA lookup 0-1" S asciicircum
EndChar

StartChar: Ubreve
Encoding: 364 364 28
Width: 768
Flags: HW
LayerCount: 2
Fore
SplineSet
46 398 m 1
 48 546 l 1
 720 546 l 1
 722 398 l 1
 636 402 l 1
 650 186 624 0 401 -0 c 0
 159 0 122 171 130 402 c 1
 46 398 l 1
401 180 m 0
 473 180 464 309 455 402 c 1
 309 402 l 1
 301 293 296 180 401 180 c 0
382 752 m 0
 418 752 450 768 466 789 c 0
 476 801 482 817 482 837 c 2
 483 909 l 1
 627 907 l 1
 626 835 l 2
 625 784 608 737 580 701 c 0
 539 647 469 608 382 608 c 0
 324 608 269 622 224 653 c 0
 171 689 130 750 127 833 c 2
 124 905 l 1
 268 911 l 1
 271 839 l 2
 272 824 275 812 280 802 c 0
 286 790 293 780 305 772 c 0
 322 760 348 752 382 752 c 0
EndSplineSet
LCarets2: 1 0
Ligature2: "'liga' +ahluljBuVAhbVwAA in +MOkwxjDzZYdbVwAA lookup 0-1" U asciicircum
EndChar

StartChar: asciicircum
Encoding: 94 94 29
Width: 578
Flags: HW
LayerCount: 2
Fore
SplineSet
278 539 m 1
 231 497 180 448 132 408 c 1
 40 518 l 0
 69 542 105 575 138 606 c 0
 176 641 208 671 235 691 c 0
 247 700 262 705 278 705 c 0
 294 705 308 700 320 691 c 0
 344 673 373 648 404 618 c 0
 443 581 484 540 515 508 c 1
 411 408 l 1
 374 446 322 499 278 539 c 1
EndSplineSet
EndChar

StartChar: comma
Encoding: 44 44 31
Width: 358
Flags: HW
LayerCount: 2
Fore
SplineSet
74 137 m 1
 218 129 l 1
 218 129 l 2
 214 58 193 -45 138 -153 c 1
 34 -92 l 1
 66 -4 74 88 74 137 c 1
EndSplineSet
EndChar

StartChar: period
Encoding: 46 46 32
Width: 358
Flags: HW
LayerCount: 2
Fore
SplineSet
50 105 m 0
 50 165 80 195 140 195 c 0
 200 195 230 165 230 105 c 0
 230 45 200 15 140 15 c 0
 80 15 50 45 50 105 c 0
EndSplineSet
EndChar

StartChar: exclam
Encoding: 33 33 33
Width: 358
Flags: HW
LayerCount: 2
Fore
SplineSet
50 105 m 0
 50 165 80 195 140 195 c 0
 200 195 230 165 230 105 c 0
 230 45 200 15 140 15 c 0
 80 15 50 45 50 105 c 0
311 705 m 1
 219 250 l 0
 104 264 l 2
 177 723 l 0
 311 705 l 1
EndSplineSet
EndChar

StartChar: question
Encoding: 63 63 34
Width: 570
Flags: HW
LayerCount: 2
Fore
SplineSet
156 105 m 0
 156 165 186 195 246 195 c 0
 306 195 336 165 336 105 c 0
 336 45 306 15 246 15 c 0
 186 15 156 45 156 105 c 0
383 562 m 0
 380 605 358 627 314 634 c 0
 292 637 275 638 245 627 c 0
 221 618 206 609 198 598 c 0
 188 586 183 563 183 542 c 2
 183 529 l 2
 60 530 l 2
 61 566 l 2
 62 611 86 654 115 680 c 0
 159 720 239 750 312 750 c 0
 312 750 l 0
 415 748 496 668 503 589 c 0
 504 577 505 548 505 536 c 0
 505 464 453 410 397 387 c 0
 396 387 396 386 395 386 c 0
 366 377 345 362 330 341 c 0
 318 325 309 303 305 278 c 0
 304 273 304 248 304 248 c 2
 194 266 l 1
 200 306 214 370 235 399 c 0
 259 432 286 457 325 476 c 0
 362 494 385 530 383 562 c 0
EndSplineSet
EndChar

StartChar: equal
Encoding: 61 61 35
Width: 476
Flags: HW
LayerCount: 2
Fore
SplineSet
76 262 m 1
 74 361 l 0
 175 366 277 369 381 364 c 0
 380 266 l 1
 76 262 l 1
79 122 m 0
 77 220 l 0
 184 224 271 231 382 230 c 0
 382 131 l 2
 80 122 l 1
 80 122 l 2
 80 122 80 122 79 122 c 0
EndSplineSet
EndChar

StartChar: hyphen
Encoding: 45 45 36
Width: 476
Flags: HW
LayerCount: 2
Fore
SplineSet
79 180 m 2
 78 303 l 2
 397 308 l 2
 398 185 l 2
 79 180 l 2
EndSplineSet
EndChar
